<svg xmlns="http://www.w3.org/2000/svg" viewBox="0 0 128 160" x="0px" y="0px"><g><path d="M120.543,48.314c-.152-.116-.426-.267-.744-.455a3.283,3.283,0,0,1-1.054-.953,1.115,1.115,0,0,1-.072-.13c-.274-.029-.57-.05-.9-.065a15.2,15.2,0,0,0-4.693.621,23.586,23.586,0,0,0-6,2.664,2.1,2.1,0,0,1,.008.224,2.041,2.041,0,0,1-.022.448c-.065.454-.137.787-.2,1.126-.174.7-.34,1.4-.534,2.05-.232.636-.434,1.256-.672,1.834-.253.57-.484,1.126-.729,1.653s-.491,1.025-.722,1.509c-.246.469-.484.932-.715,1.372a9.684,9.684,0,0,1-1.675,2.39,3.438,3.438,0,0,1-.512.454,5.379,5.379,0,0,1-.549.383,6.676,6.676,0,0,1-1.1.505,25.432,25.432,0,0,0-3.141.961,3.419,3.419,0,0,0-.563.375,1.752,1.752,0,0,1-.007.188c1.566.4,2.9.808,4,1.169a26.974,26.974,0,0,1,2.664,1.04c.275.13.506.253.715.361a12.567,12.567,0,0,1,2.159-.44,10.02,10.02,0,0,1,2.029-.015c-1.055-2.888-.08-6.8,1.075-9.255,1.444-3.062,5.891-8.476,9.913-5.733a6.675,6.675,0,0,1,2.642,3.451,10.576,10.576,0,0,0,.621-4.837,6.139,6.139,0,0,0-.173-.837c-.094-.275-.2-.549-.3-.816a8.527,8.527,0,0,0-.405-.758C120.752,48.617,120.557,48.307,120.543,48.314Zm3.364,2.606a11.85,11.85,0,0,1-.339,4.592c-.614,2.382-1.863,4.426-2.577,6.743a15.113,15.113,0,0,1-1.48,3.321c-2.159,3.408-5.74,7.451-9.992,4.621a5.087,5.087,0,0,1-1.509-1.589,9.72,9.72,0,0,0-2.339.188,13.485,13.485,0,0,0-1.993.57c-.744.275-1.552.578-2.426.9C94.22,72.817,82.777,76.774,65.2,82.643a15.753,15.753,0,0,1-4.837,5.689C56.743,90.838,51.9,90.383,49.35,87.2a21.827,21.827,0,0,1-7.992,1.473c-1.415,0-2.779-.065-4.079-.145s-2.57-.058-3.812-.094c-2.483-.05-4.837-.079-7.133-.187l-3.328-.13c-.542-.022-1.061-.029-1.61-.072a9.044,9.044,0,0,1-1.711-.39,27.827,27.827,0,0,1-5.3-2.737,25.006,25.006,0,0,0-2.238-1.22c-.78-.39-1.538-.787-2.238-1.155a35.269,35.269,0,0,0-3.95-1.9l-.231-.086-.115-.044-.2-.057c-.253-.072-.5-.152-.751-.224l-.375-.108L4.2,80.1c-.015-.022-.007-.072-.015-.1L4.17,79.77c-.029-.282-.051-.563-.079-.845-.029-.361-.051-.715-.08-1.061s.007-.635.007-.946c.008-1.249.109-2.339.087-3.335q-.011-.369-.022-.715l-.021-.563-.008-.282c-.007-.094-.028-.195.08-.238.274-.195.534-.39.794-.578a3.592,3.592,0,0,0,.491-.368,21.991,21.991,0,0,0,2.686-2.974c.353-.433.664-.787.938-1.076.267-.484.621-1.1,1.033-1.834.563-.982,1.241-2.2,2.129-3.566a20.651,20.651,0,0,1,3.639-4.325,14.432,14.432,0,0,1,2.8-1.884,8.363,8.363,0,0,1,.816-.376l.419-.173a2.27,2.27,0,0,1,.253-.1l.2-.065q.812-.27,1.667-.541a32.181,32.181,0,0,1,3.762-.809,19.531,19.531,0,0,1,1.992-.224c.636-.058,1.293-.115,1.95-.173.346-.022.613-.1.924-.144s.606-.094.931-.181.628-.152.946-.231l.96-.282c1.285-.411,2.592-.909,3.949-1.436.34-.13.686-.26,1.025-.39l.26-.087.065-.007.015-.022.123-.079.512-.217c.289-.115.542-.238.787-.361a3.069,3.069,0,0,1,1.285-4.288,3.872,3.872,0,0,1,4.382.65c.376-.239.751-.477,1.134-.708.339-.2.7-.39,1.054-.585.18-.093.332-.187.549-.281l.512-.238c1.358-.643,2.679-1.285,4.1-1.82a43.471,43.471,0,0,1,8.252-2.447A76.557,76.557,0,0,1,75.745,38c.513.015,1.018,0,1.509.036s.968.073,1.43.116a22.462,22.462,0,0,1,2.606.354c.671.115,1.285.231,1.87.339a39.715,39.715,0,0,1,4.31-.224c2.216,0,4.339-.043,6.324.065a24.241,24.241,0,0,1,5.263.8,9.961,9.961,0,0,1,3.307,1.545c.022.021.043.036.065.057l3.855-.065c1.033-.014,2.014-.028,3.1-.086s2.2-.1,3.379-.065a13.269,13.269,0,0,1,3.718.548,7.007,7.007,0,0,1,1.906.9,6.246,6.246,0,0,1,.867.707l.382.426a1.73,1.73,0,0,1,.231.3l.181.376a10.612,10.612,0,0,0,.483,1.595,1.483,1.483,0,0,0,.39.3,9.859,9.859,0,0,1,.924.57c.094.079.224.188.34.3l.2.282.325.476a11.436,11.436,0,0,1,.541,1.011c.152.354.282.707.412,1.076A10.062,10.062,0,0,1,123.907,50.92Zm-6.266,13.566c.96-1.61,1.985-3.538,1.833-5.494s-1.133-5.538-3.92-4.686c-2.982.9-4.743,3.6-5.609,6.483-.643,2.137-1.762,7.531,1.768,8.137C114.565,69.417,116.363,66.5,117.641,64.486Zm.31-19.3c.072.014.137.029.2.043a1.835,1.835,0,0,0-.094-.325.469.469,0,0,1-.021-.05l-.058-.058-.231-.274a4.29,4.29,0,0,0-.556-.455,4.88,4.88,0,0,0-1.35-.643,11.908,11.908,0,0,0-3.148-.476c-1.083-.036-2.166,0-3.234.029s-2.173.05-3.177.05l-10.9-.021a44.567,44.567,0,0,0-8.252.426,23.534,23.534,0,0,0-5.7,1.812c-1.538.678-2.758,1.3-3.725,1.747-1.935.917-2.83,1.2-2.895,1.068s.686-.664,2.49-1.812c.9-.563,2.065-1.292,3.6-2.094a22.577,22.577,0,0,1,5.935-2.223,42.046,42.046,0,0,1,8.548-.722c1.01-.015,2.064-.036,3.162-.051a36.665,36.665,0,0,0-4.8-.223c-1.885.014-4.014.122-6.267.129-2.2-.014-4.259.109-6.129.282-.932.108-1.82.2-2.636.361-.83.116-1.573.3-2.274.455-2.7.628-4.461,1.379-4.606,1.032-.079-.151.253-.5.924-1a7.012,7.012,0,0,1,1.293-.809,15.7,15.7,0,0,1,1.869-.873,19.558,19.558,0,0,1,2.354-.78c.051-.014.108-.022.159-.036l-1.213-.022c-.469-.007-.953.036-1.451.051A88.207,88.207,0,0,0,61.9,41.766a44.472,44.472,0,0,0-7.754,2.447c-.924.354-1.87.794-2.823,1.249a7.9,7.9,0,0,0,.946.433,15.629,15.629,0,0,0,2.808.722c1.943.347,3.9.47,5.848.636.491.036.989.094,1.473.144l.729.08c.267.043.549.1.823.151a5.383,5.383,0,0,1,1.574.686,6.182,6.182,0,0,1,1.321,1l.094.093c0,.008.535.094.535.094a11.905,11.905,0,0,0,1.212.109l.614.007c.051.007.325-.022.527-.036l.635-.065c.759-.065,2.246-.542,2.332.512.058.592-.945,2.065-1.249,2.592l-.317.542c-.094.151-.174.31-.275.44l-.584.823a22.94,22.94,0,0,1-2.578,2.931c-.476.426-.953.845-1.451,1.235-.267.18-.534.368-.794.548-.058.037-.108.073-.166.109a4.156,4.156,0,0,1,.433.216,3.472,3.472,0,0,1,.773.578,6.55,6.55,0,0,0,1.4-.708c.188-.144.354-.267.506-.368.129-.108.238-.209.339-.281.2-.145.317-.2.382-.152s.058.166-.028.4a3.849,3.849,0,0,1-.21.455c-.108.159-.252.354-.426.578a4.929,4.929,0,0,1-1.213.989,3.093,3.093,0,0,1,.217.4c.065.13.152.3.195.4l.079.181.137.339a4.777,4.777,0,0,1,1.127.773c.014-.036.036-.08.05-.116l.123-.318a2.285,2.285,0,0,0,.051-.259c.036-.2.043-.455.065-.766a5.825,5.825,0,0,1,.166-1.054,3.257,3.257,0,0,1,.18-.548c.072-.174.144-.347.2-.463,1.885-3.833,3.783-7.919,7.184-10.634A19.85,19.85,0,0,1,82.185,46.3a19.505,19.505,0,0,1,7.039-1.1,30.868,30.868,0,0,1,7.913,1.422c.346-.021.7-.043,1.047-.072l.289-.014a.893.893,0,0,1,.2,0l.353.021a12.251,12.251,0,0,1,1.365.123c.448.051.881.145,1.314.238a14.665,14.665,0,0,1,2.469.766c.39.173.78.39,1.134.57l.252.137C110.883,45.065,115.374,44.675,117.951,45.188Zm-12.764,5.321c.014-.094.007-.051.007-.08a.068.068,0,0,0-.007-.036c0-.021-.029-.036-.044-.043-.259-.137-.519-.274-.786-.419-.325-.151-.614-.3-.939-.447a12.464,12.464,0,0,0-2.123-.614c-.382-.072-.765-.152-1.162-.188a11.079,11.079,0,0,0-1.191-.094l-.3-.014H98.48l-.116.007c-.057.007-.072,0-.065.022l.065.086.246.4a10.69,10.69,0,0,1,2.353.1,5.791,5.791,0,0,1,1.423.426,1.694,1.694,0,0,1,.368.194,4.18,4.18,0,0,1,.4.3,2.868,2.868,0,0,1,.57.779,3.116,3.116,0,0,1,.239.8l.057.368v.347a3.621,3.621,0,0,1-.036.642,3.675,3.675,0,0,1-.086.585,11.463,11.463,0,0,1-.585,2.014,21.239,21.239,0,0,1-1.473,3.083,8.787,8.787,0,0,1-1.819,2.115,8.591,8.591,0,0,1-2.845,1.589,2.713,2.713,0,0,1-.657.13,16.291,16.291,0,0,0-.418,1.6,16.532,16.532,0,0,1,3.111-1.35,5.771,5.771,0,0,0,2.9-3.3c.21-.441.419-.9.636-1.379s.419-.975.642-1.487c.2-.52.419-1.054.636-1.6s.375-1.134.57-1.726c.159-.6.289-1.22.433-1.862C105.086,51.151,105.136,50.834,105.187,50.509Zm-3.328,2.772a2.872,2.872,0,0,0-.051-1.465c-.007-.051-.043-.051-.051-.073s-.014-.065-.05-.057a.728.728,0,0,0-.209-.116,3.748,3.748,0,0,0-.888-.253,7.647,7.647,0,0,0-1.026-.079c.022.094.044.18.058.274l.087.455.014.455a4.074,4.074,0,0,1-.036.9l-.13.867c-.065.274-.13.541-.195.808-.151.534-.317,1.061-.505,1.588-.376,1.04-.809,2.051-1.235,3.076-.274.65-.548,1.314-.794,1.985a21.5,21.5,0,0,0,2.13-1.913,8.749,8.749,0,0,0,1.278-1.848,24.146,24.146,0,0,0,1.169-2.9A10.327,10.327,0,0,0,101.859,53.281Zm-1.1,15.529c.462-.137.9-.274,1.328-.4-1.4-.354-3.508-.881-6.555-1.465-.527-.094-.513-.123-.621-.073-.05.073.022.037-.231.289a3.89,3.89,0,0,1-.592.549,16.319,16.319,0,0,1-2.772,1.675c-1.942,1-4.13,2.137-6.585,3.407-1.942,1-4.057,2.058-6.36,3.2C88.416,72.68,95.686,70.355,100.754,68.81ZM97.592,53.093a3.745,3.745,0,0,0-.412-2.274c-.065-.115-.122-.231-.187-.346a13.866,13.866,0,0,1-2.065,1.039,5.559,5.559,0,0,1,.476,1.755,16.964,16.964,0,0,1-1.978,8.454,19.158,19.158,0,0,1-1.711,2.9c-.2.245-.383.5-.606.744a7.245,7.245,0,0,1-.715.7q-.747.617-1.538,1.278c-.57.382-1.155.772-1.762,1.176-.62.376-1.27.722-1.934,1.1s-1.358.707-2.072,1.083-1.5.693-2.289,1.025a21.424,21.424,0,0,1-5.35,1.494,9.131,9.131,0,0,1-1.559.08c-.275.007-.513-.022-.773-.036a4.488,4.488,0,0,1-.563-.087,3.387,3.387,0,0,1-.635-.245,1.62,1.62,0,0,1-.491-.5,1.984,1.984,0,0,1-.3-.578c-.087-.26-.173-.513-.26-.765-.144-.448-.361-.9-.541-1.358-.361-.9-.824-1.87-1.257-2.866-.115-.267-.231-.491-.339-.8l-.166-.469a6.011,6.011,0,0,1-.116-.665c0-.029.008-.057.008-.086a6.822,6.822,0,0,1-1.2-.477.162.162,0,0,0-.036.029.743.743,0,0,0-.094.108c-.187.217-.382.448-.585.686s-.433.513-.671.766c-.751.772-1.6,1.523-2.484,2.288a7.86,7.86,0,0,1,3.43,4.621,1.04,1.04,0,0,1,.094.274,1.382,1.382,0,0,1,.043.282A13.945,13.945,0,0,1,66.5,79.4c6.859-3.321,12.591-6.108,17.32-8.4,2.5-1.213,4.721-2.288,6.692-3.241a15.835,15.835,0,0,0,2.549-1.379,2.439,2.439,0,0,0,.455-.39,1.142,1.142,0,0,0,.252-.3,12.849,12.849,0,0,1,.628-3.589c.369-1.176.824-2.252,1.257-3.284s.859-2.015,1.2-2.975c.174-.476.332-.953.462-1.415l.174-.693C97.527,53.519,97.556,53.3,97.592,53.093ZM95.881,48.6a1.225,1.225,0,0,1-.072-.116,28.849,28.849,0,0,0-6.65-1.162,18.233,18.233,0,0,0-6.339.873,19.677,19.677,0,0,0-4.671,2.181,18.709,18.709,0,0,0-2.036,1.7,17.231,17.231,0,0,1,5.791.419,4.347,4.347,0,0,1,1.27.52,9.582,9.582,0,0,1,2.152-1.025,40.363,40.363,0,0,1,4.591-1.206A18.993,18.993,0,0,0,95.881,48.6ZM94.56,53.288a8.556,8.556,0,0,0-.094-1.588q-.423.151-.823.282a25.83,25.83,0,0,1-3.329.765c-1.978.332-3.465.52-4.591.729-.708.123-1.264.231-1.711.318a2.285,2.285,0,0,1-.383,2.714c-1.4,1.87-4.3,1.358-6.469,1.545-.036,1.589-1.725,2.123-3.314,2.527a.832.832,0,0,1-.462-.014.321.321,0,0,0-.079.014.814.814,0,0,1-1-.57c-.015-.1-.029-.217-.044-.332-.122.26-.252.534-.375.794a3.017,3.017,0,0,0-.354,1.285,8.9,8.9,0,0,1-.086.946c-.022.18-.08.39-.123.577l-.181.477a8.784,8.784,0,0,1-.411.859l-.087.166-.029.05c-.029.044.022.022-.014.029.014.051.014.08.036.145l.108.3c.065.2.2.469.289.693.426.982.866,1.92,1.263,2.924.195.5.412.967.578,1.48.065.224.137.44.209.657.029.1.029.065.029.079a1.872,1.872,0,0,0,.188.029c.224.015.455.044.664.036a8.156,8.156,0,0,0,1.256-.05,19.91,19.91,0,0,0,4.838-1.3c.758-.3,1.48-.6,2.173-.924.7-.354,1.386-.678,2.036-1.011s1.285-.664,1.869-1c.571-.361,1.127-.708,1.668-1.047.491-.383.975-.758,1.437-1.119a5.737,5.737,0,0,0,.614-.549c.18-.187.346-.411.527-.606a19.015,19.015,0,0,0,1.667-2.577A19.172,19.172,0,0,0,94.56,53.288ZM81.066,56.147c.5-.13,2.5-1.2,1.372-1.761a6.023,6.023,0,0,0-2.1-.513,22.49,22.49,0,0,0-4.289-.152c-2.613.268-2.541,2.961-2.274,5.09a5.678,5.678,0,0,0,.549-.159.72.72,0,0,1,.52,0c.455-.194.787-.512.628-1.075a.8.8,0,0,1,.563-1C77.687,56.256,79.434,56.566,81.066,56.147ZM69.6,51.758a.152.152,0,0,0,.015-.072c-.015,0,0-.037-.072-.037L69.5,51.57c-.021,0,.022-.166-.151-.166h-.722c-.881,0-2.173.455-2.91-.209a2.4,2.4,0,0,1-.238-.21l-.159-.173a4.121,4.121,0,0,0-.9-.657,3.3,3.3,0,0,0-.989-.44l-.578-.109-.693-.072c-.469-.05-.931-.094-1.415-.13-1.913-.159-3.949-.281-6.043-.65a17.22,17.22,0,0,1-3.191-.823A7.932,7.932,0,0,1,49.09,46.56c-.281.151-.563.3-.844.462-.621.39-1.242.779-1.87,1.213-1.256.851-2.52,1.761-3.884,2.555a58.818,58.818,0,0,1-6.267,3.061A21.785,21.785,0,0,0,33.431,55.3a7.257,7.257,0,0,0-1.978,1.762c-.152.2-.267.383-.376.556a.9.9,0,0,0-.043.13l-.029.144c0,.044.116.036.166.058l.4.087c.08.021.109.021.224.057s.26.08.4.123c.52.173,1.062.354,1.617.534a15.041,15.041,0,0,0,1.69.484c1.177.274,2.52.491,3.906.679a32.176,32.176,0,0,0,4.454.31l1.191-.022,1.228-.086c.83-.08,1.66-.217,2.563-.318q2.7-.324,5.682-.686c2.093-.332,4.252-.267,6.346-.505a7.29,7.29,0,0,0,2.9-.78l.332-.166c.108-.065.217-.151.332-.231.217-.151.433-.3.657-.462.433-.339.852-.722,1.278-1.105a21.137,21.137,0,0,0,2.31-2.671c.173-.238.347-.491.52-.736a4.161,4.161,0,0,0,.231-.39Zm-3.638,11.01c.021-.008.014-.029.014-.051,0-.007.007-.007,0-.029l-.072-.18a2.62,2.62,0,0,0-.123-.3,2.148,2.148,0,0,0-.216-.426,12.655,12.655,0,0,1-1.733.462c-1.177.252-2.549.4-4.014.671-.368.065-.737.152-1.112.238-.361.1-.744.21-1.177.347-.837.245-1.725.512-2.671.8-1.877.556-3.949,1.163-6.144,2a27.57,27.57,0,0,0-6.223,3.2,3.742,3.742,0,0,1-.159.766c-.058.18-.116.411-.166.548l-.152.361a14.65,14.65,0,0,1-.664,1.314.424.424,0,0,0-.058.094,52.421,52.421,0,0,0,8.873-1.032A9.927,9.927,0,0,1,54,68.218a11.648,11.648,0,0,1,4.31-1.133c.895-.051,2.036.527,2.895.188,1.068-.419,2.3-1.971,3.148-2.809.223-.216.411-.447.613-.664l.621-.686a1.885,1.885,0,0,1,.21-.209,1.238,1.238,0,0,1,.137-.123A.131.131,0,0,0,65.963,62.768ZM60.671,85.177c2.671-2.96,4.923-7.371,4.158-11.464-1.379-5.1-7.66-5.971-11.356-2.556-3.047,2.808-4.751,8.194-3.545,12.237C51.545,88.809,57.227,89,60.671,85.177ZM63.58,60.725c.21-.022.4-.051.6-.08a5.83,5.83,0,0,0-1.01-.274l-.34-.044a17.4,17.4,0,0,1-1.747.268c-2.31.231-4.4.137-6.281.418-2,.21-3.9.405-5.7.6-.888.079-1.8.209-2.679.281l-1.307.065c-.433,0-.859,0-1.27-.007-.895-.022-1.747-.08-2.578-.159l.325.578c-3.891,2.18-7.183,3.891-9.97,5.118a53.8,53.8,0,0,1-6.779,2.542c-.881.238-1.617.447-2.246.57s-1.148.188-1.552.231c-.8.079-1.162.029-1.2-.116s.267-.375.989-.707c.361-.159.823-.354,1.408-.57.577-.239,1.27-.52,2.093-.86,1.639-.664,3.762-1.6,6.44-2.9,2.267-1.1,4.917-2.512,8.014-4.231-1.3-.223-2.5-.454-3.646-.765a17.014,17.014,0,0,1-1.8-.585c-.548-.2-1.076-.4-1.581-.592l-.375-.137-.52-.173c-.881-.282-1.769-1.069-2.722-1.032a8.4,8.4,0,0,0-2.534.989c-.715.332-1.408.621-2.043.938-.635.34-1.235.657-1.8.96-.57.282-1.069.636-1.567.925s-.974.555-1.379.851c-.823.592-1.595,1.054-2.187,1.531s-1.112.859-1.56,1.177c-.4.354-.729.635-1,.844-.549.419-.867.549-.982.455s-.029-.4.339-1.01c.188-.3.448-.694.794-1.148.383-.419.852-.917,1.423-1.5s1.306-1.133,2.129-1.819c.412-.347.9-.635,1.387-.989.5-.332,1.01-.722,1.6-1.054s1.2-.693,1.856-1.069c.664-.354,1.386-.678,2.137-1.047s1.588-.642,2.44-.982a11.222,11.222,0,0,1,1.365-.433c.548-.144,1.472.008,1.942-.339.852-.621.036-.549-.607-.491l-1.992.13c-.628.043-1.242.051-1.841.152a32.642,32.642,0,0,0-3.466.613q-.855.249-1.689.477l-.2.058-.145.057-.368.137a7.671,7.671,0,0,0-.722.3A12.99,12.99,0,0,0,16.934,58.4a20.768,20.768,0,0,0-3.617,3.783c-.967,1.249-1.761,2.382-2.447,3.292-.433.585-.823,1.069-1.155,1.458-.246.376-.549.838-.924,1.43-.34.52-.73,1.169-1.264,1.877a36.109,36.109,0,0,1,3.408,1.892,12.45,12.45,0,0,0,3.725,1.631c2.448.513,5.054-.289,7.465-1.141,4.917-1.711,9.35-3.573,13.725-4.346a21.8,21.8,0,0,1,3.234-.346c.267-.015.534-.015.8-.008l.39.015a4,4,0,0,1,.607.036,28.133,28.133,0,0,1,7.082-3.66c2.325-.859,4.455-1.437,6.353-1.942q1.419-.38,2.686-.715c.4-.108.845-.217,1.285-.318.433-.079.852-.159,1.249-.2C61.125,60.934,62.454,60.869,63.58,60.725ZM48.253,85.293a8.308,8.308,0,0,1-.412-1.321A17.216,17.216,0,0,1,49.083,73.4a52.085,52.085,0,0,1-8.75.83c-.036.008-.065-.014-.1-.014-.123.173-.238.347-.361.52-1,1.386-1.949,2.613-2.715,3.812a26.349,26.349,0,0,0-1.884,3.516c-.13.288-.253.563-.375.837-.152.3-.289.585-.426.867-.051.072-.087.144-.13.216,5.645.022,7.255.253,7.255.542s-1.761.534-8.006.541c-.051.065-.108.144-.166.209a7.022,7.022,0,0,1-1.076,1.011c.4.007.787.007,1.184.015,1.256.028,2.541,0,3.855.079s2.621.13,3.957.13A19.523,19.523,0,0,0,48.253,85.293ZM44.477,46.581c-1.458-.909-3.631.109-2.866,1.906C42.557,47.91,43.5,47.253,44.477,46.581ZM40.456,69.922c.029-.072-.072-.043-.116-.05h-.476a6.038,6.038,0,0,0-.708.014,20.67,20.67,0,0,0-2.945.361,47.1,47.1,0,0,0-7.206,2.123,25.046,25.046,0,0,0,2.08,1.617.785.785,0,0,1,.375.642.337.337,0,0,0,.08-.007c.721-.05,1.386-.094,2.007-.144s1.205-.015,1.725-.022c1.032.029,1.855.1,2.491.159.209-.3.419-.6.635-.91.462-.685.924-1.393,1.336-2.137.2-.368.39-.75.548-1.126l.116-.289c.029-.079.022-.072.036-.115A.546.546,0,0,0,40.456,69.922Zm-3.487,5.841a2.021,2.021,0,0,0-.7.383A7.608,7.608,0,0,0,34.8,78.131c-.513.9-1,2.043-1.776,3.35A9.873,9.873,0,0,1,31.5,83.5a5.243,5.243,0,0,1-2.757,1.415,16.4,16.4,0,0,1-3.069.2H25.3c-.123.008-.282,0-.3.008-.239.036-.491.065-.737.093-.527.073-1.083.152-1.66.21a15.078,15.078,0,0,1-1.849.1,7.267,7.267,0,0,1-1.068-.094,3.884,3.884,0,0,1-.491-.13c0,.007-.007.022-.007.029.361.152.729.3,1.1.419a7.8,7.8,0,0,0,1.3.281c.491.036,1.032.036,1.559.058l3.263.087c1.156.043,2.347.072,3.589.086.108-.05.216-.094.324-.151A6.422,6.422,0,0,0,32.363,84.4c.137-.195.281-.405.426-.614.129-.224.252-.455.382-.686.108-.253.224-.5.339-.765.116-.282.231-.578.354-.881a25.8,25.8,0,0,1,1.87-3.783C36.11,77.034,36.528,76.4,36.969,75.763Zm-2.123-.043c-.375.029-.765.065-1.177.137-.6.094-1.213.2-2,.3-1.48.18-3.147.267-5.032.469-.945.108-1.934.231-2.945.441a10.911,10.911,0,0,0-1.48.418,3.079,3.079,0,0,0-1.148.643,6.854,6.854,0,0,0-.737,1.422,4.347,4.347,0,0,1-.3.462c4.007-.043,8-.375,12-.628a.653.653,0,0,1,.174.022c.447-.737.859-1.459,1.3-2.08A9.488,9.488,0,0,1,34.846,75.72ZM30.2,82.109a8.387,8.387,0,0,0,.909-1.047c-3.949.26-7.891.563-11.854.578.036.159.065.317.1.462a1.584,1.584,0,0,0,.462,1.025,1.592,1.592,0,0,0,.982.253,14.84,14.84,0,0,0,1.595-.073c.535-.05,1.069-.115,1.6-.18.274-.029.527-.065.83-.087.246-.021.354,0,.484-.007l.382.007a15.605,15.605,0,0,0,2.693-.1A3.355,3.355,0,0,0,30.2,82.109ZM29.33,74.7c-.657-.513-1.278-1.069-1.949-1.567a1.064,1.064,0,0,1-.13-.13c-1.422.527-2.888,1.076-4.411,1.617a26.554,26.554,0,0,1-4.014,1.184,11.453,11.453,0,0,1-4.635.065A14.485,14.485,0,0,1,9.837,74a26.717,26.717,0,0,0-3.826-2.05c-.1.087-.2.166-.3.253l-.2.159-.1.093c-.044.022,0,.087-.008.13l.015.058a1,1,0,0,0,.007.108c.022.26.043.52.065.787.007.087.007.174.014.26a43.367,43.367,0,0,0,8.635,4.108c1.105.361,2.245,1.213,3.451,1.155a1.4,1.4,0,0,0,.585-.158c.715-.412.772-1.5,1.458-2.174a4.842,4.842,0,0,1,1.928-1.1,11.591,11.591,0,0,1,1.769-.44,28.006,28.006,0,0,1,3.155-.361C27.5,74.767,28.457,74.731,29.33,74.7Zm-11.6,9.912c.036-.123.08-.245.109-.375a3.283,3.283,0,0,1-.3-.6,6.506,6.506,0,0,1-.311-1.091A4.623,4.623,0,0,0,16.8,81.1l.065-.043c-.094-.022-.187-.036-.274-.058-.376-.108-.736-.224-1.09-.346-.737-.267-1.278-.47-2.051-.73a37.292,37.292,0,0,1-5.292-2.18,1.288,1.288,0,0,1-.18.173c-.491.376-1.141.665-1.61,1.1l.152.058a35.017,35.017,0,0,1,4.216,1.869c.722.361,1.437.722,2.187,1.069.816.375,1.625.8,2.419,1.256S16.92,84.181,17.728,84.614ZM5.571,77.582c.317-.238.664-.447,1-.664-.339-.188-.679-.375-1.025-.577,0,.187.007.375.007.563C5.563,77.127,5.556,77.359,5.571,77.582Z"/><path d="M117.114,55.454c2.916,1.7,1.573,5.949.195,8.194-1.026,1.668-2.585,4.527-4.859,4.664a1.1,1.1,0,0,1-.506-.094C106.963,67.027,111.858,52.371,117.114,55.454Zm-.441,3.661c.022-2.036-1.66-1.964-2.6-.47a11.591,11.591,0,0,0-1.177,2.4c-.245.729-1.545,4.5-.361,5.068a7.186,7.186,0,0,0,1.885-1.985C115.388,62.7,116.659,60.912,116.673,59.115Z"/><path d="M59.609,69.872c9.314.447,2.881,15.767-3.718,17.276a.992.992,0,0,1-.57.1.965.965,0,0,1-.578-.108c-4.223-.881-5.032-5.675-4.021-9.486C51.877,73.287,54.664,69.634,59.609,69.872ZM61.855,76.2a6.827,6.827,0,0,0,.079-1.552,1.085,1.085,0,0,1-1.783-1.227,8.432,8.432,0,0,1,.722-.989l.007-.008a2.818,2.818,0,0,0-1.863-.411c-.093.007-.187.021-.274.029v.029c0,.151,0,.3.014.44a.313.313,0,0,1,.029.123,1.1,1.1,0,0,1-.4,1.458A1.09,1.09,0,0,1,56.9,73.7a3.58,3.58,0,0,1-.289-1.068,6.665,6.665,0,0,0-3.285,3.826,9.994,9.994,0,0,1,2,.433c1.314.455.751,2.549-.57,2.094a9.063,9.063,0,0,0-1.993-.426,14.226,14.226,0,0,0-.253,2.079c.3-.159.607-.31.9-.476a1.082,1.082,0,0,1,1.09,1.87c-.57.324-1.177.6-1.733.953a2.826,2.826,0,0,0,2.015,1.992,3.948,3.948,0,0,1,.2-1.1,1.1,1.1,0,0,1,1.335-.758,1.093,1.093,0,0,1,.773,1.249,7.926,7.926,0,0,0,1.336-1.163c-.029-.065-.058-.13-.08-.2a1.059,1.059,0,0,1,1.408-1.552A15.223,15.223,0,0,0,61.313,78.3a2.239,2.239,0,0,0-.224-.007,1.084,1.084,0,0,1,0-2.166A4.543,4.543,0,0,1,61.855,76.2Z"/></g><text x="0" y="143" fill="#000000" font-size="5px" font-weight="bold" font-family="'Helvetica Neue', Helvetica, Arial-Unicode, Arial, Sans-serif">Created by Hey Rabbit</text><text x="0" y="148" fill="#000000" font-size="5px" font-weight="bold" font-family="'Helvetica Neue', Helvetica, Arial-Unicode, Arial, Sans-serif">from the Noun Project</text></svg>